<mxfile host="app.diagrams.net" agent="Mozilla/5.0 (Windows NT 10.0; Win64; x64) AppleWebKit/537.36 (KHTML, like Gecko) Chrome/134.0.0.0 Safari/537.36" version="26.1.0" pages="2">
  <diagram name="Página-1" id="j6_5-SMxAMAFsQT9uG4L">
    <mxGraphModel dx="880" dy="468" grid="1" gridSize="10" guides="1" tooltips="1" connect="1" arrows="1" fold="1" page="1" pageScale="1" pageWidth="827" pageHeight="1169" math="0" shadow="0">
      <root>
        <mxCell id="0" />
        <mxCell id="1" parent="0" />
        <mxCell id="WtSC3xzpKmDQXLjDczLu-3" style="edgeStyle=orthogonalEdgeStyle;rounded=0;orthogonalLoop=1;jettySize=auto;html=1;entryX=0.5;entryY=0;entryDx=0;entryDy=0;" edge="1" parent="1" source="WtSC3xzpKmDQXLjDczLu-1" target="WtSC3xzpKmDQXLjDczLu-2">
          <mxGeometry relative="1" as="geometry" />
        </mxCell>
        <mxCell id="WtSC3xzpKmDQXLjDczLu-1" value="INICIO" style="ellipse;whiteSpace=wrap;html=1;aspect=fixed;" vertex="1" parent="1">
          <mxGeometry x="130" y="20" width="80" height="80" as="geometry" />
        </mxCell>
        <mxCell id="WtSC3xzpKmDQXLjDczLu-11" value="" style="edgeStyle=orthogonalEdgeStyle;rounded=0;orthogonalLoop=1;jettySize=auto;html=1;" edge="1" parent="1" source="WtSC3xzpKmDQXLjDczLu-2" target="WtSC3xzpKmDQXLjDczLu-4">
          <mxGeometry relative="1" as="geometry" />
        </mxCell>
        <mxCell id="WtSC3xzpKmDQXLjDczLu-2" value="Pedir numero x" style="shape=parallelogram;perimeter=parallelogramPerimeter;whiteSpace=wrap;html=1;fixedSize=1;" vertex="1" parent="1">
          <mxGeometry x="110" y="140" width="120" height="50" as="geometry" />
        </mxCell>
        <mxCell id="WtSC3xzpKmDQXLjDczLu-9" style="edgeStyle=orthogonalEdgeStyle;rounded=0;orthogonalLoop=1;jettySize=auto;html=1;exitX=1;exitY=0.5;exitDx=0;exitDy=0;" edge="1" parent="1" source="WtSC3xzpKmDQXLjDczLu-4" target="WtSC3xzpKmDQXLjDczLu-10">
          <mxGeometry relative="1" as="geometry">
            <mxPoint x="290" y="270" as="targetPoint" />
          </mxGeometry>
        </mxCell>
        <mxCell id="WtSC3xzpKmDQXLjDczLu-13" value="" style="edgeStyle=orthogonalEdgeStyle;rounded=0;orthogonalLoop=1;jettySize=auto;html=1;" edge="1" parent="1" source="WtSC3xzpKmDQXLjDczLu-4" target="WtSC3xzpKmDQXLjDczLu-12">
          <mxGeometry relative="1" as="geometry" />
        </mxCell>
        <mxCell id="WtSC3xzpKmDQXLjDczLu-4" value="x%5==0 y&amp;nbsp;&lt;div&gt;x%3==0&lt;/div&gt;" style="rhombus;whiteSpace=wrap;html=1;" vertex="1" parent="1">
          <mxGeometry x="130" y="230" width="80" height="80" as="geometry" />
        </mxCell>
        <mxCell id="WtSC3xzpKmDQXLjDczLu-6" value="Si" style="text;html=1;align=center;verticalAlign=middle;resizable=0;points=[];autosize=1;strokeColor=none;fillColor=none;" vertex="1" parent="1">
          <mxGeometry x="215" y="238" width="30" height="30" as="geometry" />
        </mxCell>
        <mxCell id="WtSC3xzpKmDQXLjDczLu-20" value="" style="edgeStyle=orthogonalEdgeStyle;rounded=0;orthogonalLoop=1;jettySize=auto;html=1;" edge="1" parent="1" source="WtSC3xzpKmDQXLjDczLu-10" target="WtSC3xzpKmDQXLjDczLu-19">
          <mxGeometry relative="1" as="geometry" />
        </mxCell>
        <mxCell id="WtSC3xzpKmDQXLjDczLu-10" value="Escriba &quot;margarita&quot;" style="shape=parallelogram;perimeter=parallelogramPerimeter;whiteSpace=wrap;html=1;fixedSize=1;" vertex="1" parent="1">
          <mxGeometry x="230" y="240" width="120" height="60" as="geometry" />
        </mxCell>
        <mxCell id="WtSC3xzpKmDQXLjDczLu-17" value="" style="edgeStyle=orthogonalEdgeStyle;rounded=0;orthogonalLoop=1;jettySize=auto;html=1;" edge="1" parent="1" source="WtSC3xzpKmDQXLjDczLu-12" target="WtSC3xzpKmDQXLjDczLu-16">
          <mxGeometry relative="1" as="geometry" />
        </mxCell>
        <mxCell id="WtSC3xzpKmDQXLjDczLu-22" value="" style="edgeStyle=orthogonalEdgeStyle;rounded=0;orthogonalLoop=1;jettySize=auto;html=1;" edge="1" parent="1" source="WtSC3xzpKmDQXLjDczLu-12" target="WtSC3xzpKmDQXLjDczLu-21">
          <mxGeometry relative="1" as="geometry" />
        </mxCell>
        <mxCell id="WtSC3xzpKmDQXLjDczLu-12" value="x%6==0 y&amp;nbsp;&lt;div&gt;x%7==0&lt;/div&gt;" style="rhombus;whiteSpace=wrap;html=1;" vertex="1" parent="1">
          <mxGeometry x="130" y="368" width="80" height="80" as="geometry" />
        </mxCell>
        <mxCell id="WtSC3xzpKmDQXLjDczLu-14" value="No" style="text;html=1;align=center;verticalAlign=middle;resizable=0;points=[];autosize=1;strokeColor=none;fillColor=none;" vertex="1" parent="1">
          <mxGeometry x="130" y="320" width="40" height="30" as="geometry" />
        </mxCell>
        <mxCell id="WtSC3xzpKmDQXLjDczLu-23" style="edgeStyle=orthogonalEdgeStyle;rounded=0;orthogonalLoop=1;jettySize=auto;html=1;entryX=1;entryY=0.5;entryDx=0;entryDy=0;" edge="1" parent="1" source="WtSC3xzpKmDQXLjDczLu-16" target="WtSC3xzpKmDQXLjDczLu-21">
          <mxGeometry relative="1" as="geometry">
            <Array as="points">
              <mxPoint x="300" y="568" />
            </Array>
          </mxGeometry>
        </mxCell>
        <mxCell id="WtSC3xzpKmDQXLjDczLu-16" value="Escriba &quot;Rosa&quot;" style="shape=parallelogram;perimeter=parallelogramPerimeter;whiteSpace=wrap;html=1;fixedSize=1;" vertex="1" parent="1">
          <mxGeometry x="250" y="378" width="120" height="60" as="geometry" />
        </mxCell>
        <mxCell id="WtSC3xzpKmDQXLjDczLu-18" value="Si" style="text;html=1;align=center;verticalAlign=middle;resizable=0;points=[];autosize=1;strokeColor=none;fillColor=none;" vertex="1" parent="1">
          <mxGeometry x="215" y="378" width="30" height="30" as="geometry" />
        </mxCell>
        <mxCell id="WtSC3xzpKmDQXLjDczLu-25" value="" style="edgeStyle=orthogonalEdgeStyle;rounded=0;orthogonalLoop=1;jettySize=auto;html=1;" edge="1" parent="1" source="WtSC3xzpKmDQXLjDczLu-19" target="WtSC3xzpKmDQXLjDczLu-24">
          <mxGeometry relative="1" as="geometry" />
        </mxCell>
        <mxCell id="WtSC3xzpKmDQXLjDczLu-33" style="edgeStyle=orthogonalEdgeStyle;rounded=0;orthogonalLoop=1;jettySize=auto;html=1;entryX=1;entryY=0.5;entryDx=0;entryDy=0;" edge="1" parent="1" source="WtSC3xzpKmDQXLjDczLu-19" target="WtSC3xzpKmDQXLjDczLu-21">
          <mxGeometry relative="1" as="geometry">
            <Array as="points">
              <mxPoint x="470" y="560" />
              <mxPoint x="210" y="560" />
            </Array>
          </mxGeometry>
        </mxCell>
        <mxCell id="WtSC3xzpKmDQXLjDczLu-19" value="x%6==0 y&lt;div&gt;&lt;span style=&quot;background-color: transparent; color: light-dark(rgb(0, 0, 0), rgb(255, 255, 255));&quot;&gt;x%7==0&amp;nbsp;&lt;/span&gt;&lt;/div&gt;" style="rhombus;whiteSpace=wrap;html=1;" vertex="1" parent="1">
          <mxGeometry x="430" y="230" width="80" height="80" as="geometry" />
        </mxCell>
        <mxCell id="WtSC3xzpKmDQXLjDczLu-21" value="FIN" style="ellipse;whiteSpace=wrap;html=1;" vertex="1" parent="1">
          <mxGeometry x="130" y="528" width="80" height="80" as="geometry" />
        </mxCell>
        <mxCell id="WtSC3xzpKmDQXLjDczLu-31" value="" style="edgeStyle=orthogonalEdgeStyle;rounded=0;orthogonalLoop=1;jettySize=auto;html=1;" edge="1" parent="1" source="WtSC3xzpKmDQXLjDczLu-24" target="WtSC3xzpKmDQXLjDczLu-30">
          <mxGeometry relative="1" as="geometry" />
        </mxCell>
        <mxCell id="WtSC3xzpKmDQXLjDczLu-24" value="Escribir &quot;Rosa&quot;" style="shape=parallelogram;perimeter=parallelogramPerimeter;whiteSpace=wrap;html=1;fixedSize=1;" vertex="1" parent="1">
          <mxGeometry x="550" y="240" width="120" height="60" as="geometry" />
        </mxCell>
        <mxCell id="WtSC3xzpKmDQXLjDczLu-27" value="Si" style="text;html=1;align=center;verticalAlign=middle;resizable=0;points=[];autosize=1;strokeColor=none;fillColor=none;" vertex="1" parent="1">
          <mxGeometry x="515" y="248" width="30" height="30" as="geometry" />
        </mxCell>
        <mxCell id="WtSC3xzpKmDQXLjDczLu-30" value="Escribe &quot;Violeta&quot;" style="shape=parallelogram;perimeter=parallelogramPerimeter;whiteSpace=wrap;html=1;fixedSize=1;" vertex="1" parent="1">
          <mxGeometry x="550" y="380" width="120" height="60" as="geometry" />
        </mxCell>
        <mxCell id="WtSC3xzpKmDQXLjDczLu-32" style="edgeStyle=orthogonalEdgeStyle;rounded=0;orthogonalLoop=1;jettySize=auto;html=1;entryX=1.013;entryY=0.663;entryDx=0;entryDy=0;entryPerimeter=0;" edge="1" parent="1" source="WtSC3xzpKmDQXLjDczLu-30" target="WtSC3xzpKmDQXLjDczLu-21">
          <mxGeometry relative="1" as="geometry">
            <Array as="points">
              <mxPoint x="610" y="581" />
            </Array>
          </mxGeometry>
        </mxCell>
        <mxCell id="WtSC3xzpKmDQXLjDczLu-34" value="No" style="text;html=1;align=center;verticalAlign=middle;resizable=0;points=[];autosize=1;strokeColor=none;fillColor=none;" vertex="1" parent="1">
          <mxGeometry x="440" y="318" width="40" height="30" as="geometry" />
        </mxCell>
        <mxCell id="WtSC3xzpKmDQXLjDczLu-35" value="Podemos salir con los tres casos" style="text;html=1;align=center;verticalAlign=middle;resizable=0;points=[];autosize=1;strokeColor=none;fillColor=none;" vertex="1" parent="1">
          <mxGeometry x="280" y="128" width="200" height="30" as="geometry" />
        </mxCell>
      </root>
    </mxGraphModel>
  </diagram>
  <diagram id="YRNWuz3563TG_PwvtJuo" name="Página-2">
    <mxGraphModel dx="880" dy="468" grid="1" gridSize="10" guides="1" tooltips="1" connect="1" arrows="1" fold="1" page="1" pageScale="1" pageWidth="827" pageHeight="1169" math="0" shadow="0">
      <root>
        <mxCell id="0" />
        <mxCell id="1" parent="0" />
      </root>
    </mxGraphModel>
  </diagram>
</mxfile>
